<?xml version="1.0" encoding="UTF-8"?>
<svg id="Layer_1" xmlns="http://www.w3.org/2000/svg" version="1.1" viewBox="0 0 619 613">
  <!-- Generator: Adobe Illustrator 29.5.0, SVG Export Plug-In . SVG Version: 2.1.0 Build 137)  -->
  <defs>
    <style>
      .st0 {
        fill: #6f7b4d;
      }

      .st1 {
        fill: #e2e2e2;
      }
    </style>
  </defs>
  <path class="st0" d="M272.2,572.9c20.1,22.3,55.9,24.1,77.2,2.6.6-50.5,0-101,.4-151.4.3-6.7,1.7-13.8.6-20.4-1.7-9.5-8.1-17-15.1-23.2,6.4,36.2-4,71.3-43.3,80.5,23.9-21,20.8-45.4,20.8-74.4,0-8.9,0-17.8-.3-26.7,19.5.2,39,.2,58.5.2,16.5,22.9,39,46.2,64.4,59l8.2-11.2c-11.8-7.4-25-15.6-34.7-25.6-11.1-11.5-22.6-24.5-32.7-36.8h-40.8c.9-102.2-.3-234.1,0-337.5-15.2-1.5-30.6-1.9-45.9-1.3-86.5,2.9-138.8,12.5-219.4,117-80.6,104.5-82.8,250.7-4.9,357.9,50.6,69.7,132.1,116.1,217.8,124.1-30.9-8-57.9-30.1-71.9-58.8-12.1-24.7-14.8-53.5-29.2-76.9-21.7-35.2-64.9-50.8-92.5-81.5-32.4-36.1-39.5-89.2-30.8-136.9,69.3,14.5,128.7,75.5,135,147.3,4.6-7.3,8.5-13.4,11.9-21.5,12.3-29.3,9.3-79.8-11.4-105.2-12.9-15.9-34.1-23.4-48.8-37.7-35.1-34.7-46.2-76.8-36.2-124.9,37.3,9.1,70,33.7,90.6,66,10.9,17,18.4,35.3,20.2,55.5.6,5.8-.4,63.1-2.9,63.1,19.8.7,40.9,5.2,55.2,19.9v66.5c-5.8-.2-16.4-1-21.7-.2-24.5,3.6-29.5,30.7-14,47.2-13.3,12-11.2,27.1-.5,39.7-11,12.9-11.5,27,0,40.1-9.8,14.7-10.4,30.9,5.5,42.4,8.3,6,20.6,3.9,30.6,3.9,0,6-.2,13.4,0,19.2ZM226.5,135.9c-33.4-22.2-49.8-59.9-43.9-99.4,24.9,8.2,41.5,18.1,60,36.8-9.2,15.9-12.5,29.5-14.9,47.4-.4,5.1-.8,10.1-1.2,15.2ZM256.7,287.4c-8.4-3.4-15.6-4.8-24.4-6.5,1.1-45,5.5-95,8.2-140.2.6-55.3,28.3-99.5,80-120.1h0c0,0,.5.1.5.1.2.3.3.5.5.8-.3,16.8,0,264.1,0,288.1-10.9,0-21.9,0-32.8-.2-11.2-11-17.6-15.7-31.9-22ZM250.5,395.6c13.5-.6,33.8,0,47.5.1.1,5.6,1.2,20.9-1.7,24.5-2.2.6-5.6.3-8,.3-9.7-.1-29.3,1-38.2-1.1-10.1-2.3-12.2-18.2.4-23.8ZM252.9,435.2h0c12.7-.5,29.3,0,42.3,0-3.4,9.7-7.1,15.3-13.9,22.9-2.7,3.4-17.4,1.1-22.1,1.7-3.2.4-9.2-.6-12-2.4-10-6.7-6.3-20.2,5.7-22.2ZM252.3,475.3h0c11.5-.8,59.1-.2,70.8,0,6.4,0,10.4,2.9,12,9.4,1.8,7-2.8,14.1-9.9,15.2,0,0-72.6.9-76.6-1.3-8.9-5-9-20.5,3.7-23.2ZM253.7,539c-13.7-2.6-15.9-22.7,2.9-23.7h0c21.9-.7,47.6.6,69.6.3,11,0,15.5,22.7-3.5,23.6l-45.2-.2c-5.6,0-19.1.7-23.8,0Z"/>
  <path class="st1" d="M182.6,36.5c-5.9,39.5,10.5,77.2,43.9,99.4.4-5.1.8-10.1,1.2-15.2,2.4-17.9,5.7-31.5,14.9-47.4-18.5-18.7-35.1-28.6-60-36.8Z"/>
  <path class="st0" d="M609.5,326.4h0c-114.2,53.7-135.2,54.2-192.6,173.1-2.7,5.5-5.6,11.1-8,16.7-1.1,2.5-2.2,6.5-2.9,9.1-8.6,35.3-31.4,68.7-67.5,79.6h.7c141.4-13.5,263.9-135.4,271-278.4h-.6Z"/>
  <path class="st0" d="M445.6,312.5c-8.5,27-6.4,60.1,7.7,85l5.3-5.6c9-9.2,18.4-17.4,28.8-24.8,19.6-13.9,42.4-22.7,63.7-33.5,19.7-10.1,39.9-19.4,60.1-28.6-.6-38.3-7.8-74-22.4-109.5-28.5,15.5-60.1,28.7-88.3,43.9-25.9,14-46.9,45.8-54.9,73.1Z"/>
  <polygon class="st0" points="588.8 195.5 588.8 195.5 588.8 195.5 588.8 195.5"/>
  <polygon class="st0" points="520.7 95.9 520.7 95.9 520.7 95.9 520.7 95.9"/>
  <path class="st0" d="M430,298.2c3.5-8.7,7.7-17.1,12.5-25.1,30.5-51.2,73.1-59.4,122.4-86.1,4.8-2.4,11.9-6.2,16.8-8-13-26.5-29.9-51-49.9-72.7-2.1-2.4-8.6-9.7-11.1-10.4-11.9,5.4-23.7,10.9-35.5,16.4-73.1,28-103.7,122.7-55.2,185.9Z"/>
  <path class="st0" d="M394.2,183.3c7.9-19.3,12.9-28.6,25.7-45,26.1-30.9,51.4-41.2,88-56.4-28.7-22.9-58-43-92.9-55.6h0c-46.9,36.3-61,110.7-20.7,157Z"/>
  <path class="st0" d="M370.2,49.6c7.6-12.2,14.2-20.6,24.6-30.5-12.4-3.4-23.4-6.3-36.1-8.5h0c-.7,19.1-.2,44.2.3,63.2,3.5-9,6.3-15.8,11.2-24.2Z"/>
</svg>
