<?xml version="1.0" encoding="UTF-8"?>
<svg id="Layer_1" xmlns="http://www.w3.org/2000/svg" version="1.1" viewBox="0 0 619 613">
  <!-- Generator: Adobe Illustrator 29.5.0, SVG Export Plug-In . SVG Version: 2.1.0 Build 137)  -->
  <defs>
    <style>
      .st0 {
        fill: #6f7b4d;
      }

      .st1 {
        fill: #e2e2e2;
      }

      .st2 {
        fill: #fff;
      }
    </style>
  </defs>
  <path class="st0" d="M289.5,6.7c15.3-.6,30.7-.2,45.9,1.3-.3,103.4.9,235.3,0,337.5h40.8c10.1,12.3,21.6,25.3,32.7,36.8,9.7,10,22.9,18.2,34.7,25.6l-8.2,11.2c-25.4-12.8-47.9-36.1-64.4-59-19.5,0-39,0-58.5-.2.2,8.9.2,17.8.3,26.7,0,29,3.1,53.4-20.8,74.4,39.3-9.2,49.7-44.3,43.3-80.5,7,6.2,13.4,13.7,15.1,23.2,1.1,6.6-.3,13.7-.6,20.4-.4,50.4.2,100.9-.4,151.4-21.3,21.5-57.1,19.7-77.2-2.6-.3-5.8-.1-13.2-.1-19.2-10,0-22.3,2.1-30.6-3.9-15.9-11.5-15.3-27.7-5.5-42.4-11.5-13.1-11-27.2,0-40.1-10.7-12.6-12.8-27.7.5-39.7-15.5-16.5-10.5-43.6,14-47.2,5.3-.8,15.9,0,21.7.2v-66.5c-14.3-14.7-35.4-19.2-55.2-19.9,2.5,0,3.5-57.3,2.9-63.1-1.8-20.2-9.3-38.5-20.2-55.5-20.6-32.3-53.3-56.9-90.6-66-10,48.1,1.1,90.2,36.2,124.9,14.7,14.3,35.9,21.8,48.8,37.7,20.7,25.4,23.7,75.9,11.4,105.2-3.4,8.1-7.3,14.2-11.9,21.5-6.3-71.8-65.7-132.8-135-147.3-8.7,47.7-1.6,100.8,30.8,136.9,27.6,30.7,70.8,46.3,92.5,81.5,14.4,23.4,17.1,52.2,29.2,76.9,14,28.7,41,50.8,71.9,58.8-85.7-8-167.2-54.4-217.8-124.1C-12.7,374.4-10.5,228.2,70.1,123.7S203,9.6,289.5,6.7Z"/>
  <path class="st2" d="M320.4,20.5l.5.2c.2.3.3.5.5.8-.3,16.8,0,264.1,0,288.1-10.9,0-21.9,0-32.8-.2-11.2-11-17.6-15.7-31.9-22-8.4-3.4-15.6-4.8-24.4-6.5,1.1-45,5.5-95,8.2-140.2.6-55.3,28.3-99.5,80-120.1h-.1Z"/>
  <path class="st1" d="M182.6,36.5c24.9,8.2,41.5,18.1,60,36.8-9.2,15.9-12.5,29.5-14.9,47.4-.4,5.1-.8,10.1-1.2,15.2-33.4-22.2-49.8-59.9-43.9-99.4Z"/>
  <path class="st2" d="M252.3,475.2c11.5-.7,59.1-.1,70.8,0,6.4,0,10.4,2.9,12,9.4,1.8,7-2.8,14.1-9.9,15.2,0,0-72.6.9-76.6-1.3-8.9-5-9-20.5,3.7-23.2h0Z"/>
  <path class="st2" d="M256.6,515.2c21.9-.6,47.6.7,69.6.4,11,0,15.5,22.7-3.5,23.6l-45.2-.2c-5.6,0-19.1.7-23.8,0-13.7-2.6-15.9-22.7,2.9-23.7Z"/>
  <path class="st2" d="M250.5,395.6c13.5-.6,33.8-.1,47.5.1.1,5.6,1.2,20.9-1.7,24.5-2.2.6-5.6.3-8,.3-9.7-.1-29.3,1-38.2-1.1-10.1-2.3-12.2-18.2.4-23.8h0Z"/>
  <path class="st2" d="M252.9,435.2c12.7-.5,29.3,0,42.3,0-3.4,9.7-7.1,15.3-13.9,22.9-2.7,3.4-17.4,1.1-22.1,1.7-3.2.4-9.2-.6-12-2.4-10-6.7-6.3-20.2,5.7-22.2h0Z"/>
  <path class="st0" d="M609.5,326.5h.6c-7.1,143-129.6,264.9-271,278.4h-.7c36.1-10.9,58.9-44.3,67.5-79.6.7-2.6,1.8-6.6,2.9-9.1,2.4-5.6,5.3-11.2,8-16.7,57.4-118.9,78.4-119.4,192.6-173.1h.1Z"/>
  <path class="st0" d="M588.8,195.5c14.6,35.5,21.8,71.2,22.4,109.5-20.2,9.2-40.4,18.5-60.1,28.6-21.3,10.8-44.1,19.6-63.7,33.5-10.4,7.4-19.8,15.6-28.8,24.8l-5.3,5.6c-14.1-24.9-16.2-58-7.7-85,8-27.3,29-59.1,54.9-73.1,28.2-15.2,59.8-28.4,88.3-43.9h0Z"/>
  <path class="st0" d="M520.7,95.9c2.5.7,9,8,11.1,10.4,20,21.7,36.9,46.2,49.9,72.7-4.9,1.8-12,5.6-16.8,8-49.3,26.7-91.9,34.9-122.4,86.1-4.8,8-9,16.4-12.5,25.1-48.5-63.2-17.9-157.9,55.2-185.9,11.8-5.5,23.6-11,35.5-16.4h0Z"/>
  <path class="st0" d="M415,26.3c34.9,12.6,64.2,32.7,92.9,55.6-36.6,15.2-61.9,25.5-88,56.4-12.8,16.4-17.8,25.7-25.7,45-40.3-46.3-26.2-120.7,20.7-157h.1Z"/>
  <path class="st0" d="M358.7,10.6c12.7,2.2,23.7,5.1,36.1,8.5-10.4,9.9-17,18.3-24.6,30.5-4.9,8.4-7.7,15.2-11.2,24.2-.5-19-1-44.1-.3-63.1h0Z"/>
</svg>